<svg width="32" height="32" viewBox="0 0 32 32" fill="none" xmlns="http://www.w3.org/2000/svg">
  <rect width="32" height="32" fill="#FFE66D" rx="4"/>
  <path d="M16 4L13 12H19L16 4Z" fill="#FF6B6B"/>
  <circle cx="16" cy="4" r="1.5" fill="#4ECDC4"/>
  <circle cx="16" cy="18" r="7" fill="#FFF"/>
  <circle cx="14.5" cy="16.5" r="0.8" fill="#2C3E50"/>
  <circle cx="17.5" cy="16.5" r="0.8" fill="#2C3E50"/>
  <path d="M14 19.5C14 20.5 15 21 16 21C17 21 18 20.5 18 19.5" stroke="#2C3E50" stroke-width="0.8" fill="none"/>
  <rect x="7" y="8" width="1.2" height="1.2" fill="#FF6B6B" transform="rotate(45 7.6 8.6)"/>
  <rect x="24" y="10" width="1.2" height="1.2" fill="#4ECDC4" transform="rotate(45 24.6 10.6)"/>
  <rect x="5" y="20" width="1.2" height="1.2" fill="#A8E6CF" transform="rotate(45 5.6 20.6)"/>
  <rect x="26" y="24" width="1.2" height="1.2" fill="#FFE66D" transform="rotate(45 26.6 24.6)"/>
</svg>
