<svg width="32" height="32" viewBox="0 0 32 32" fill="none" xmlns="http://www.w3.org/2000/svg">
  <defs>
    <linearGradient id="hatGradient" x1="0%" y1="0%" x2="100%" y2="100%">
      <stop offset="0%" style="stop-color:#FF6B6B;stop-opacity:1" />
      <stop offset="100%" style="stop-color:#FF4757;stop-opacity:1" />
    </linearGradient>
    <linearGradient id="faceGradient" x1="0%" y1="0%" x2="100%" y2="100%">
      <stop offset="0%" style="stop-color:#FFE66D;stop-opacity:1" />
      <stop offset="100%" style="stop-color:#FFC048;stop-opacity:1" />
    </linearGradient>
  </defs>
  
  <!-- Party hat -->
  <path d="M16 2L12 14H20L16 2Z" fill="url(#hatGradient)"/>
  <circle cx="16" cy="2" r="2" fill="#4ECDC4"/>
  
  <!-- Hat decoration -->
  <circle cx="14" cy="8" r="1" fill="#FFE66D"/>
  <circle cx="18" cy="10" r="1" fill="#A8E6CF"/>
  
  <!-- Face -->
  <circle cx="16" cy="20" r="10" fill="url(#faceGradient)"/>
  
  <!-- Eyes -->
  <circle cx="13" cy="17" r="1.5" fill="#2C3E50"/>
  <circle cx="19" cy="17" r="1.5" fill="#2C3E50"/>
  
  <!-- Eye sparkles -->
  <circle cx="13.5" cy="16.5" r="0.3" fill="#FFFFFF"/>
  <circle cx="19.5" cy="16.5" r="0.3" fill="#FFFFFF"/>
  
  <!-- Smile -->
  <path d="M12 22C12 24 14 25 16 25C18 25 20 24 20 22" stroke="#2C3E50" stroke-width="1.5" fill="none" stroke-linecap="round"/>
  
  <!-- Confetti pieces -->
  <rect x="6" y="8" width="2" height="2" fill="#FF6B6B" transform="rotate(45 7 9)"/>
  <rect x="26" y="12" width="2" height="2" fill="#4ECDC4" transform="rotate(45 27 13)"/>
  <rect x="4" y="18" width="2" height="2" fill="#A8E6CF" transform="rotate(45 5 19)"/>
  <rect x="28" y="22" width="2" height="2" fill="#FFE66D" transform="rotate(45 29 23)"/>
  <circle cx="2" cy="12" r="1" fill="#FF6B6B"/>
  <circle cx="30" cy="18" r="1" fill="#4ECDC4"/>
  
  <!-- Party streamers -->
  <path d="M2 6C4 8 6 6 8 8" stroke="#4ECDC4" stroke-width="1.5" fill="none" stroke-linecap="round"/>
  <path d="M24 6C26 8 28 6 30 8" stroke="#A8E6CF" stroke-width="1.5" fill="none" stroke-linecap="round"/>
  <path d="M1 26C3 24 5 26 7 24" stroke="#FF6B6B" stroke-width="1.5" fill="none" stroke-linecap="round"/>
  <path d="M25 26C27 24 29 26 31 24" stroke="#FFE66D" stroke-width="1.5" fill="none" stroke-linecap="round"/>
</svg>
